<mxfile host="Electron" agent="Mozilla/5.0 (Windows NT 10.0; Win64; x64) AppleWebKit/537.36 (KHTML, like Gecko) draw.io/24.7.17 Chrome/128.0.6613.36 Electron/32.0.1 Safari/537.36" version="24.7.17">
  <diagram name="Page-1" id="HNyWJ7ixwN_tLthrhEKC">
    <mxGraphModel dx="2273" dy="3550" grid="0" gridSize="10" guides="1" tooltips="1" connect="1" arrows="1" fold="1" page="0" pageScale="1" pageWidth="850" pageHeight="1100" math="0" shadow="0">
      <root>
        <mxCell id="0" />
        <mxCell id="1" parent="0" />
        <mxCell id="0lG4HtCBKDrn22ON5Dr3-152" value="" style="edgeStyle=orthogonalEdgeStyle;rounded=0;orthogonalLoop=1;jettySize=auto;html=1;" edge="1" parent="1" source="0lG4HtCBKDrn22ON5Dr3-2" target="0lG4HtCBKDrn22ON5Dr3-143">
          <mxGeometry relative="1" as="geometry" />
        </mxCell>
        <mxCell id="0lG4HtCBKDrn22ON5Dr3-2" value="&lt;font style=&quot;font-size: 23px;&quot;&gt;start&lt;/font&gt;" style="ellipse;whiteSpace=wrap;html=1;fillColor=#60a917;fontColor=#ffffff;strokeColor=#2D7600;direction=south;" vertex="1" parent="1">
          <mxGeometry x="-27.5" y="-1111" width="135" height="106" as="geometry" />
        </mxCell>
        <mxCell id="0lG4HtCBKDrn22ON5Dr3-47" value="" style="edgeStyle=orthogonalEdgeStyle;rounded=0;orthogonalLoop=1;jettySize=auto;html=1;" edge="1" parent="1" source="0lG4HtCBKDrn22ON5Dr3-7" target="0lG4HtCBKDrn22ON5Dr3-46">
          <mxGeometry relative="1" as="geometry" />
        </mxCell>
        <mxCell id="0lG4HtCBKDrn22ON5Dr3-48" value="&lt;font style=&quot;font-size: 18px;&quot;&gt;Yes&lt;/font&gt;" style="edgeLabel;html=1;align=center;verticalAlign=middle;resizable=0;points=[];" vertex="1" connectable="0" parent="0lG4HtCBKDrn22ON5Dr3-47">
          <mxGeometry x="-0.1375" y="3" relative="1" as="geometry">
            <mxPoint x="-1" as="offset" />
          </mxGeometry>
        </mxCell>
        <mxCell id="0lG4HtCBKDrn22ON5Dr3-66" value="" style="edgeStyle=orthogonalEdgeStyle;rounded=0;orthogonalLoop=1;jettySize=auto;html=1;" edge="1" parent="1" source="0lG4HtCBKDrn22ON5Dr3-67" target="0lG4HtCBKDrn22ON5Dr3-62">
          <mxGeometry relative="1" as="geometry" />
        </mxCell>
        <mxCell id="0lG4HtCBKDrn22ON5Dr3-7" value="&lt;font style=&quot;font-size: 15px;&quot;&gt;Is the answer correct?&lt;/font&gt;" style="rhombus;whiteSpace=wrap;html=1;fillColor=#008a00;fontColor=#ffffff;strokeColor=#005700;" vertex="1" parent="1">
          <mxGeometry x="-53.5" y="-290" width="187" height="155" as="geometry" />
        </mxCell>
        <mxCell id="0lG4HtCBKDrn22ON5Dr3-37" value="&lt;font style=&quot;font-size: 14px;&quot;&gt;Calculate newScore = playerScore + rowNumber&lt;/font&gt;" style="rounded=0;whiteSpace=wrap;html=1;fillColor=#1ba1e2;fontColor=#ffffff;strokeColor=#006EAF;" vertex="1" parent="1">
          <mxGeometry x="21" y="-8" width="215" height="60" as="geometry" />
        </mxCell>
        <mxCell id="0lG4HtCBKDrn22ON5Dr3-49" value="" style="edgeStyle=orthogonalEdgeStyle;rounded=0;orthogonalLoop=1;jettySize=auto;html=1;" edge="1" parent="1" source="0lG4HtCBKDrn22ON5Dr3-46" target="0lG4HtCBKDrn22ON5Dr3-37">
          <mxGeometry relative="1" as="geometry" />
        </mxCell>
        <mxCell id="0lG4HtCBKDrn22ON5Dr3-50" value="&lt;font style=&quot;font-size: 20px;&quot;&gt;No&lt;/font&gt;" style="edgeLabel;html=1;align=center;verticalAlign=middle;resizable=0;points=[];" vertex="1" connectable="0" parent="0lG4HtCBKDrn22ON5Dr3-49">
          <mxGeometry x="-0.0091" y="-1" relative="1" as="geometry">
            <mxPoint as="offset" />
          </mxGeometry>
        </mxCell>
        <mxCell id="0lG4HtCBKDrn22ON5Dr3-52" value="" style="edgeStyle=orthogonalEdgeStyle;rounded=0;orthogonalLoop=1;jettySize=auto;html=1;" edge="1" parent="1" source="0lG4HtCBKDrn22ON5Dr3-46">
          <mxGeometry relative="1" as="geometry">
            <mxPoint x="481.5999999999999" y="-10" as="targetPoint" />
          </mxGeometry>
        </mxCell>
        <mxCell id="0lG4HtCBKDrn22ON5Dr3-54" value="&lt;font style=&quot;font-size: 20px;&quot;&gt;Yes&lt;/font&gt;" style="edgeLabel;html=1;align=center;verticalAlign=middle;resizable=0;points=[];" vertex="1" connectable="0" parent="0lG4HtCBKDrn22ON5Dr3-52">
          <mxGeometry x="-0.0863" y="8" relative="1" as="geometry">
            <mxPoint x="13" y="9" as="offset" />
          </mxGeometry>
        </mxCell>
        <mxCell id="0lG4HtCBKDrn22ON5Dr3-46" value="&lt;font style=&quot;font-size: 15px;&quot;&gt;Is this question a double Jeopardy?&lt;/font&gt;" style="rhombus;whiteSpace=wrap;html=1;fillColor=#008a00;fontColor=#ffffff;strokeColor=#005700;" vertex="1" parent="1">
          <mxGeometry x="213.5" y="-290" width="187" height="155" as="geometry" />
        </mxCell>
        <mxCell id="0lG4HtCBKDrn22ON5Dr3-106" value="" style="edgeStyle=orthogonalEdgeStyle;rounded=0;orthogonalLoop=1;jettySize=auto;html=1;" edge="1" parent="1" source="0lG4HtCBKDrn22ON5Dr3-58" target="0lG4HtCBKDrn22ON5Dr3-105">
          <mxGeometry relative="1" as="geometry" />
        </mxCell>
        <mxCell id="0lG4HtCBKDrn22ON5Dr3-107" value="&lt;font style=&quot;font-size: 20px;&quot;&gt;No&lt;/font&gt;" style="edgeLabel;html=1;align=center;verticalAlign=middle;resizable=0;points=[];" vertex="1" connectable="0" parent="0lG4HtCBKDrn22ON5Dr3-106">
          <mxGeometry x="-0.41" y="7" relative="1" as="geometry">
            <mxPoint x="-45" y="1" as="offset" />
          </mxGeometry>
        </mxCell>
        <mxCell id="0lG4HtCBKDrn22ON5Dr3-118" value="" style="edgeStyle=orthogonalEdgeStyle;rounded=0;orthogonalLoop=1;jettySize=auto;html=1;" edge="1" parent="1" source="0lG4HtCBKDrn22ON5Dr3-120" target="0lG4HtCBKDrn22ON5Dr3-117">
          <mxGeometry relative="1" as="geometry" />
        </mxCell>
        <mxCell id="0lG4HtCBKDrn22ON5Dr3-58" value="&lt;font style=&quot;font-size: 18px;&quot;&gt;Are there more questions?&lt;/font&gt;" style="rhombus;whiteSpace=wrap;html=1;fillColor=#008a00;fontColor=#ffffff;strokeColor=#005700;" vertex="1" parent="1">
          <mxGeometry x="-53.5" y="309" width="187" height="155" as="geometry" />
        </mxCell>
        <mxCell id="0lG4HtCBKDrn22ON5Dr3-91" value="" style="edgeStyle=orthogonalEdgeStyle;rounded=0;orthogonalLoop=1;jettySize=auto;html=1;" edge="1" parent="1" source="0lG4HtCBKDrn22ON5Dr3-62" target="0lG4HtCBKDrn22ON5Dr3-90">
          <mxGeometry relative="1" as="geometry" />
        </mxCell>
        <mxCell id="0lG4HtCBKDrn22ON5Dr3-62" value="&lt;font style=&quot;font-size: 18px;&quot;&gt;shouldRepeat = &quot;No&quot;&lt;/font&gt;" style="rounded=0;whiteSpace=wrap;html=1;fillColor=#1ba1e2;fontColor=#ffffff;strokeColor=#006EAF;" vertex="1" parent="1">
          <mxGeometry x="-372" y="-254.5" width="215" height="60" as="geometry" />
        </mxCell>
        <mxCell id="0lG4HtCBKDrn22ON5Dr3-68" value="" style="edgeStyle=orthogonalEdgeStyle;rounded=0;orthogonalLoop=1;jettySize=auto;html=1;" edge="1" parent="1" source="0lG4HtCBKDrn22ON5Dr3-7" target="0lG4HtCBKDrn22ON5Dr3-67">
          <mxGeometry relative="1" as="geometry">
            <mxPoint x="-53" y="-212" as="sourcePoint" />
            <mxPoint x="-157" y="-212" as="targetPoint" />
          </mxGeometry>
        </mxCell>
        <mxCell id="0lG4HtCBKDrn22ON5Dr3-67" value="&lt;font style=&quot;font-size: 20px;&quot;&gt;No&lt;/font&gt;" style="text;html=1;align=center;verticalAlign=middle;resizable=0;points=[];autosize=1;strokeColor=none;fillColor=none;" vertex="1" parent="1">
          <mxGeometry x="-116" y="-242.5" width="44" height="36" as="geometry" />
        </mxCell>
        <mxCell id="0lG4HtCBKDrn22ON5Dr3-78" value="" style="edgeStyle=orthogonalEdgeStyle;rounded=0;orthogonalLoop=1;jettySize=auto;html=1;" edge="1" source="0lG4HtCBKDrn22ON5Dr3-79" target="0lG4HtCBKDrn22ON5Dr3-81" parent="1">
          <mxGeometry relative="1" as="geometry" />
        </mxCell>
        <mxCell id="0lG4HtCBKDrn22ON5Dr3-79" value="&lt;font style=&quot;font-size: 17px;&quot;&gt;input columnNumber&lt;/font&gt;" style="shape=parallelogram;perimeter=parallelogramPerimeter;whiteSpace=wrap;html=1;fixedSize=1;fillColor=#a20025;fontColor=#ffffff;strokeColor=#6F0000;" vertex="1" parent="1">
          <mxGeometry x="607" y="-1000" width="178" height="48" as="geometry" />
        </mxCell>
        <mxCell id="0lG4HtCBKDrn22ON5Dr3-80" value="" style="edgeStyle=orthogonalEdgeStyle;rounded=0;orthogonalLoop=1;jettySize=auto;html=1;" edge="1" source="0lG4HtCBKDrn22ON5Dr3-81" target="0lG4HtCBKDrn22ON5Dr3-83" parent="1">
          <mxGeometry relative="1" as="geometry" />
        </mxCell>
        <mxCell id="0lG4HtCBKDrn22ON5Dr3-81" value="&lt;font style=&quot;font-size: 18px;&quot;&gt;input rowNumber&lt;/font&gt;" style="shape=parallelogram;perimeter=parallelogramPerimeter;whiteSpace=wrap;html=1;fixedSize=1;fillColor=#a20025;fontColor=#ffffff;strokeColor=#6F0000;" vertex="1" parent="1">
          <mxGeometry x="607" y="-888" width="178" height="48" as="geometry" />
        </mxCell>
        <mxCell id="0lG4HtCBKDrn22ON5Dr3-82" value="" style="edgeStyle=orthogonalEdgeStyle;rounded=0;orthogonalLoop=1;jettySize=auto;html=1;" edge="1" source="0lG4HtCBKDrn22ON5Dr3-83" target="0lG4HtCBKDrn22ON5Dr3-85" parent="1">
          <mxGeometry relative="1" as="geometry" />
        </mxCell>
        <mxCell id="0lG4HtCBKDrn22ON5Dr3-83" value="&lt;font style=&quot;font-size: 14px;&quot;&gt;ouput question at (columnNumber, rowNumber)&lt;/font&gt;" style="shape=parallelogram;perimeter=parallelogramPerimeter;whiteSpace=wrap;html=1;fixedSize=1;fillColor=#a20025;fontColor=#ffffff;strokeColor=#6F0000;" vertex="1" parent="1">
          <mxGeometry x="607" y="-780" width="178" height="48" as="geometry" />
        </mxCell>
        <mxCell id="0lG4HtCBKDrn22ON5Dr3-84" value="" style="edgeStyle=orthogonalEdgeStyle;rounded=0;orthogonalLoop=1;jettySize=auto;html=1;" edge="1" source="0lG4HtCBKDrn22ON5Dr3-85" target="0lG4HtCBKDrn22ON5Dr3-86" parent="1">
          <mxGeometry relative="1" as="geometry" />
        </mxCell>
        <mxCell id="0lG4HtCBKDrn22ON5Dr3-85" value="&lt;font style=&quot;font-size: 15px;&quot;&gt;input player answering question&lt;/font&gt;" style="shape=parallelogram;perimeter=parallelogramPerimeter;whiteSpace=wrap;html=1;fixedSize=1;fillColor=#a20025;fontColor=#ffffff;strokeColor=#6F0000;" vertex="1" parent="1">
          <mxGeometry x="607" y="-669" width="178" height="48" as="geometry" />
        </mxCell>
        <mxCell id="0lG4HtCBKDrn22ON5Dr3-86" value="&lt;font style=&quot;font-size: 15px;&quot;&gt;input answer to question&lt;/font&gt;" style="shape=parallelogram;perimeter=parallelogramPerimeter;whiteSpace=wrap;html=1;fixedSize=1;fillColor=#a20025;fontColor=#ffffff;strokeColor=#6F0000;" vertex="1" parent="1">
          <mxGeometry x="607" y="-578" width="178" height="48" as="geometry" />
        </mxCell>
        <mxCell id="0lG4HtCBKDrn22ON5Dr3-95" value="" style="edgeStyle=orthogonalEdgeStyle;rounded=0;orthogonalLoop=1;jettySize=auto;html=1;" edge="1" parent="1" source="0lG4HtCBKDrn22ON5Dr3-87" target="0lG4HtCBKDrn22ON5Dr3-79">
          <mxGeometry relative="1" as="geometry" />
        </mxCell>
        <mxCell id="0lG4HtCBKDrn22ON5Dr3-87" value="&lt;font style=&quot;font-size: 26px;&quot;&gt;startUp()&lt;/font&gt;" style="shape=process;whiteSpace=wrap;html=1;backgroundOutline=1;fillColor=#0050ef;fontColor=#ffffff;strokeColor=#001DBC;" vertex="1" parent="1">
          <mxGeometry x="573" y="-1131" width="250" height="62" as="geometry" />
        </mxCell>
        <mxCell id="0lG4HtCBKDrn22ON5Dr3-89" value="" style="edgeStyle=orthogonalEdgeStyle;rounded=0;orthogonalLoop=1;jettySize=auto;html=1;" edge="1" parent="1" source="0lG4HtCBKDrn22ON5Dr3-88" target="0lG4HtCBKDrn22ON5Dr3-7">
          <mxGeometry relative="1" as="geometry" />
        </mxCell>
        <mxCell id="0lG4HtCBKDrn22ON5Dr3-88" value="&lt;font style=&quot;font-size: 26px;&quot;&gt;startUp()&lt;/font&gt;" style="shape=process;whiteSpace=wrap;html=1;backgroundOutline=1;fillColor=#0050ef;fontColor=#ffffff;strokeColor=#001DBC;" vertex="1" parent="1">
          <mxGeometry x="-85" y="-459" width="250" height="62" as="geometry" />
        </mxCell>
        <mxCell id="0lG4HtCBKDrn22ON5Dr3-90" value="&lt;font style=&quot;font-size: 26px;&quot;&gt;startUp()&lt;/font&gt;" style="shape=process;whiteSpace=wrap;html=1;backgroundOutline=1;fillColor=#0050ef;fontColor=#ffffff;strokeColor=#001DBC;" vertex="1" parent="1">
          <mxGeometry x="-389.5" y="-88" width="250" height="62" as="geometry" />
        </mxCell>
        <mxCell id="0lG4HtCBKDrn22ON5Dr3-92" value="" style="edgeStyle=orthogonalEdgeStyle;rounded=0;orthogonalLoop=1;jettySize=auto;html=1;" edge="1" source="0lG4HtCBKDrn22ON5Dr3-93" target="0lG4HtCBKDrn22ON5Dr3-94" parent="1">
          <mxGeometry relative="1" as="geometry" />
        </mxCell>
        <mxCell id="0lG4HtCBKDrn22ON5Dr3-93" value="&lt;font style=&quot;font-size: 16px;&quot;&gt;Calculate doublePoints = 2 * rowNumber&lt;/font&gt;" style="rounded=0;whiteSpace=wrap;html=1;fillColor=#1ba1e2;fontColor=#ffffff;strokeColor=#006EAF;" vertex="1" parent="1">
          <mxGeometry x="1000" y="-990" width="215" height="60" as="geometry" />
        </mxCell>
        <mxCell id="0lG4HtCBKDrn22ON5Dr3-94" value="&lt;font style=&quot;font-size: 15px;&quot;&gt;Calculate newScore = playerScore + doublePoints&lt;/font&gt;" style="rounded=0;whiteSpace=wrap;html=1;fillColor=#1ba1e2;fontColor=#ffffff;strokeColor=#006EAF;" vertex="1" parent="1">
          <mxGeometry x="1000" y="-852" width="215" height="60" as="geometry" />
        </mxCell>
        <mxCell id="0lG4HtCBKDrn22ON5Dr3-97" value="" style="edgeStyle=orthogonalEdgeStyle;rounded=0;orthogonalLoop=1;jettySize=auto;html=1;" edge="1" parent="1" source="0lG4HtCBKDrn22ON5Dr3-96" target="0lG4HtCBKDrn22ON5Dr3-93">
          <mxGeometry relative="1" as="geometry" />
        </mxCell>
        <mxCell id="0lG4HtCBKDrn22ON5Dr3-96" value="&lt;font style=&quot;font-size: 26px;&quot;&gt;doubleJeopardy()&lt;/font&gt;" style="shape=process;whiteSpace=wrap;html=1;backgroundOutline=1;fillColor=#0050ef;fontColor=#ffffff;strokeColor=#001DBC;" vertex="1" parent="1">
          <mxGeometry x="973" y="-1131" width="250" height="62" as="geometry" />
        </mxCell>
        <mxCell id="0lG4HtCBKDrn22ON5Dr3-98" value="&lt;font style=&quot;font-size: 26px;&quot;&gt;doubleJeopardy()&lt;/font&gt;" style="shape=process;whiteSpace=wrap;html=1;backgroundOutline=1;fillColor=#0050ef;fontColor=#ffffff;strokeColor=#001DBC;" vertex="1" parent="1">
          <mxGeometry x="355" y="-3" width="250" height="62" as="geometry" />
        </mxCell>
        <mxCell id="0lG4HtCBKDrn22ON5Dr3-100" value="&lt;font style=&quot;font-size: 26px;&quot;&gt;startUp()&lt;/font&gt;" style="shape=process;whiteSpace=wrap;html=1;backgroundOutline=1;fillColor=#0050ef;fontColor=#ffffff;strokeColor=#001DBC;" vertex="1" parent="1">
          <mxGeometry x="-509.5" y="562" width="250" height="62" as="geometry" />
        </mxCell>
        <mxCell id="0lG4HtCBKDrn22ON5Dr3-116" value="" style="edgeStyle=orthogonalEdgeStyle;rounded=0;orthogonalLoop=1;jettySize=auto;html=1;entryX=1;entryY=1;entryDx=0;entryDy=0;entryPerimeter=0;" edge="1" parent="1">
          <mxGeometry relative="1" as="geometry">
            <mxPoint x="337.9999999999999" y="411" as="sourcePoint" />
            <mxPoint x="489.4" y="626.5" as="targetPoint" />
          </mxGeometry>
        </mxCell>
        <mxCell id="0lG4HtCBKDrn22ON5Dr3-105" value="&lt;font style=&quot;font-size: 18px;&quot;&gt;shouldRepeat = &quot;No&quot;&lt;/font&gt;" style="rounded=0;whiteSpace=wrap;html=1;fillColor=#1ba1e2;fontColor=#ffffff;strokeColor=#006EAF;" vertex="1" parent="1">
          <mxGeometry x="338" y="356.5" width="215" height="60" as="geometry" />
        </mxCell>
        <mxCell id="0lG4HtCBKDrn22ON5Dr3-112" value="" style="edgeStyle=orthogonalEdgeStyle;rounded=0;orthogonalLoop=1;jettySize=auto;html=1;" edge="1" parent="1" source="0lG4HtCBKDrn22ON5Dr3-108" target="0lG4HtCBKDrn22ON5Dr3-109">
          <mxGeometry relative="1" as="geometry" />
        </mxCell>
        <mxCell id="0lG4HtCBKDrn22ON5Dr3-108" value="&lt;font style=&quot;font-size: 26px;&quot;&gt;endOfGame()&lt;/font&gt;" style="shape=process;whiteSpace=wrap;html=1;backgroundOutline=1;fillColor=#0050ef;fontColor=#ffffff;strokeColor=#001DBC;" vertex="1" parent="1">
          <mxGeometry x="1351" y="-1145" width="250" height="62" as="geometry" />
        </mxCell>
        <mxCell id="0lG4HtCBKDrn22ON5Dr3-113" value="" style="edgeStyle=orthogonalEdgeStyle;rounded=0;orthogonalLoop=1;jettySize=auto;html=1;" edge="1" parent="1" source="0lG4HtCBKDrn22ON5Dr3-109" target="0lG4HtCBKDrn22ON5Dr3-110">
          <mxGeometry relative="1" as="geometry" />
        </mxCell>
        <mxCell id="0lG4HtCBKDrn22ON5Dr3-109" value="&lt;font style=&quot;font-size: 15px;&quot;&gt;output playerOneScore&lt;/font&gt;" style="shape=parallelogram;perimeter=parallelogramPerimeter;whiteSpace=wrap;html=1;fixedSize=1;fillColor=#a20025;fontColor=#ffffff;strokeColor=#6F0000;" vertex="1" parent="1">
          <mxGeometry x="1379" y="-1014" width="212" height="48" as="geometry" />
        </mxCell>
        <mxCell id="0lG4HtCBKDrn22ON5Dr3-114" value="" style="edgeStyle=orthogonalEdgeStyle;rounded=0;orthogonalLoop=1;jettySize=auto;html=1;" edge="1" parent="1" source="0lG4HtCBKDrn22ON5Dr3-110" target="0lG4HtCBKDrn22ON5Dr3-111">
          <mxGeometry relative="1" as="geometry" />
        </mxCell>
        <mxCell id="0lG4HtCBKDrn22ON5Dr3-110" value="&lt;font style=&quot;font-size: 15px;&quot;&gt;output playerTwoScore&lt;/font&gt;" style="shape=parallelogram;perimeter=parallelogramPerimeter;whiteSpace=wrap;html=1;fixedSize=1;fillColor=#a20025;fontColor=#ffffff;strokeColor=#6F0000;" vertex="1" parent="1">
          <mxGeometry x="1374" y="-881" width="212" height="48" as="geometry" />
        </mxCell>
        <mxCell id="0lG4HtCBKDrn22ON5Dr3-111" value="&lt;font style=&quot;font-size: 15px;&quot;&gt;output playerThreeScore&lt;/font&gt;" style="shape=parallelogram;perimeter=parallelogramPerimeter;whiteSpace=wrap;html=1;fixedSize=1;fillColor=#a20025;fontColor=#ffffff;strokeColor=#6F0000;" vertex="1" parent="1">
          <mxGeometry x="1379" y="-748" width="212" height="48" as="geometry" />
        </mxCell>
        <mxCell id="0lG4HtCBKDrn22ON5Dr3-122" value="" style="edgeStyle=orthogonalEdgeStyle;rounded=0;orthogonalLoop=1;jettySize=auto;html=1;" edge="1" parent="1" source="0lG4HtCBKDrn22ON5Dr3-117" target="0lG4HtCBKDrn22ON5Dr3-100">
          <mxGeometry relative="1" as="geometry" />
        </mxCell>
        <mxCell id="0lG4HtCBKDrn22ON5Dr3-117" value="&lt;font style=&quot;font-size: 18px;&quot;&gt;shouldRepeat = &quot;Yes&quot;&lt;/font&gt;" style="rounded=0;whiteSpace=wrap;html=1;fillColor=#1ba1e2;fontColor=#ffffff;strokeColor=#006EAF;" vertex="1" parent="1">
          <mxGeometry x="-492" y="351" width="215" height="60" as="geometry" />
        </mxCell>
        <mxCell id="0lG4HtCBKDrn22ON5Dr3-121" value="" style="edgeStyle=orthogonalEdgeStyle;rounded=0;orthogonalLoop=1;jettySize=auto;html=1;" edge="1" parent="1" source="0lG4HtCBKDrn22ON5Dr3-58" target="0lG4HtCBKDrn22ON5Dr3-120">
          <mxGeometry relative="1" as="geometry">
            <mxPoint x="222" y="365" as="sourcePoint" />
            <mxPoint x="111" y="377" as="targetPoint" />
          </mxGeometry>
        </mxCell>
        <mxCell id="0lG4HtCBKDrn22ON5Dr3-120" value="&lt;font style=&quot;font-size: 20px;&quot;&gt;Yes&lt;/font&gt;" style="text;html=1;align=center;verticalAlign=middle;resizable=0;points=[];autosize=1;strokeColor=none;fillColor=none;" vertex="1" parent="1">
          <mxGeometry x="-208" y="363" width="51" height="36" as="geometry" />
        </mxCell>
        <mxCell id="0lG4HtCBKDrn22ON5Dr3-125" value="" style="strokeWidth=2;html=1;shape=mxgraph.flowchart.annotation_2;align=left;labelPosition=right;pointerEvents=1;direction=north;" vertex="1" parent="1">
          <mxGeometry x="-387" y="630" width="876" height="50" as="geometry" />
        </mxCell>
        <mxCell id="0lG4HtCBKDrn22ON5Dr3-127" value="" style="endArrow=classic;html=1;rounded=0;exitX=0.5;exitY=1;exitDx=0;exitDy=0;entryX=1;entryY=0;entryDx=0;entryDy=0;entryPerimeter=0;" edge="1" parent="1" source="0lG4HtCBKDrn22ON5Dr3-90" target="0lG4HtCBKDrn22ON5Dr3-146">
          <mxGeometry width="50" height="50" relative="1" as="geometry">
            <mxPoint x="281" y="801" as="sourcePoint" />
            <mxPoint x="-270" y="822" as="targetPoint" />
          </mxGeometry>
        </mxCell>
        <mxCell id="0lG4HtCBKDrn22ON5Dr3-129" value="" style="shape=partialRectangle;whiteSpace=wrap;html=1;right=0;top=0;bottom=0;fillColor=none;routingCenterX=-0.5;" vertex="1" parent="1">
          <mxGeometry x="51" y="682" width="120" height="60" as="geometry" />
        </mxCell>
        <mxCell id="0lG4HtCBKDrn22ON5Dr3-132" value="" style="edgeStyle=orthogonalEdgeStyle;rounded=0;orthogonalLoop=1;jettySize=auto;html=1;" edge="1" parent="1" source="0lG4HtCBKDrn22ON5Dr3-133" target="0lG4HtCBKDrn22ON5Dr3-131">
          <mxGeometry relative="1" as="geometry" />
        </mxCell>
        <mxCell id="0lG4HtCBKDrn22ON5Dr3-130" value="&lt;font style=&quot;font-size: 20px;&quot;&gt;shouldRepeat = &quot;Yes&quot;?&lt;/font&gt;" style="rhombus;whiteSpace=wrap;html=1;fillColor=#008a00;fontColor=#ffffff;strokeColor=#005700;" vertex="1" parent="1">
          <mxGeometry x="-43.5" y="730" width="187" height="155" as="geometry" />
        </mxCell>
        <mxCell id="0lG4HtCBKDrn22ON5Dr3-145" value="" style="edgeStyle=orthogonalEdgeStyle;rounded=0;orthogonalLoop=1;jettySize=auto;html=1;" edge="1" parent="1" source="0lG4HtCBKDrn22ON5Dr3-131" target="0lG4HtCBKDrn22ON5Dr3-144">
          <mxGeometry relative="1" as="geometry" />
        </mxCell>
        <mxCell id="0lG4HtCBKDrn22ON5Dr3-131" value="&lt;font style=&quot;font-size: 24px;&quot;&gt;endOfGame()&lt;/font&gt;" style="shape=process;whiteSpace=wrap;html=1;backgroundOutline=1;fillColor=#0050ef;strokeColor=#001DBC;fontColor=#ffffff;" vertex="1" parent="1">
          <mxGeometry x="-65" y="1068" width="232" height="60" as="geometry" />
        </mxCell>
        <mxCell id="0lG4HtCBKDrn22ON5Dr3-134" value="" style="edgeStyle=orthogonalEdgeStyle;rounded=0;orthogonalLoop=1;jettySize=auto;html=1;" edge="1" parent="1" source="0lG4HtCBKDrn22ON5Dr3-130" target="0lG4HtCBKDrn22ON5Dr3-133">
          <mxGeometry relative="1" as="geometry">
            <mxPoint x="24" y="913" as="sourcePoint" />
            <mxPoint x="25" y="1037" as="targetPoint" />
          </mxGeometry>
        </mxCell>
        <mxCell id="0lG4HtCBKDrn22ON5Dr3-133" value="&lt;font style=&quot;font-size: 20px;&quot;&gt;No&lt;/font&gt;" style="text;html=1;align=center;verticalAlign=middle;resizable=0;points=[];autosize=1;strokeColor=none;fillColor=none;" vertex="1" parent="1">
          <mxGeometry x="29" y="962" width="44" height="36" as="geometry" />
        </mxCell>
        <mxCell id="0lG4HtCBKDrn22ON5Dr3-135" value="" style="shape=partialRectangle;whiteSpace=wrap;html=1;bottom=1;right=1;left=1;top=0;fillColor=none;routingCenterX=-0.5;direction=north;" vertex="1" parent="1">
          <mxGeometry x="799" y="-339" width="60" height="1128" as="geometry" />
        </mxCell>
        <mxCell id="0lG4HtCBKDrn22ON5Dr3-140" value="" style="edgeStyle=orthogonalEdgeStyle;rounded=0;orthogonalLoop=1;jettySize=auto;html=1;exitX=1;exitY=0.5;exitDx=0;exitDy=0;entryX=0;entryY=0;entryDx=0;entryDy=0;" edge="1" parent="1" source="0lG4HtCBKDrn22ON5Dr3-130" target="0lG4HtCBKDrn22ON5Dr3-135">
          <mxGeometry relative="1" as="geometry">
            <mxPoint x="118" y="836" as="sourcePoint" />
            <mxPoint x="276" y="810" as="targetPoint" />
          </mxGeometry>
        </mxCell>
        <mxCell id="0lG4HtCBKDrn22ON5Dr3-142" value="" style="endArrow=classic;html=1;rounded=0;exitX=1;exitY=0;exitDx=0;exitDy=0;" edge="1" parent="1" source="0lG4HtCBKDrn22ON5Dr3-135">
          <mxGeometry width="50" height="50" relative="1" as="geometry">
            <mxPoint x="310" y="47" as="sourcePoint" />
            <mxPoint x="42" y="-339" as="targetPoint" />
          </mxGeometry>
        </mxCell>
        <mxCell id="0lG4HtCBKDrn22ON5Dr3-153" value="" style="edgeStyle=orthogonalEdgeStyle;rounded=0;orthogonalLoop=1;jettySize=auto;html=1;" edge="1" parent="1" source="0lG4HtCBKDrn22ON5Dr3-143" target="0lG4HtCBKDrn22ON5Dr3-88">
          <mxGeometry relative="1" as="geometry" />
        </mxCell>
        <mxCell id="0lG4HtCBKDrn22ON5Dr3-143" value="&lt;font style=&quot;font-size: 21px;&quot;&gt;&lt;b style=&quot;&quot;&gt;Declarations&lt;/b&gt;&lt;/font&gt;&lt;div style=&quot;font-size: 21px;&quot;&gt;&lt;font style=&quot;font-size: 21px;&quot;&gt;&lt;b&gt;num columnNumber = a number 1 - 6&lt;/b&gt;&lt;/font&gt;&lt;/div&gt;&lt;div style=&quot;font-size: 21px;&quot;&gt;&lt;font style=&quot;font-size: 21px;&quot;&gt;&lt;b&gt;num rowNumber = a number 1 - 5&lt;/b&gt;&lt;/font&gt;&lt;/div&gt;&lt;div style=&quot;font-size: 21px;&quot;&gt;&lt;font style=&quot;font-size: 21px;&quot;&gt;&lt;b&gt;string playerOne = first contestant&#39;s name&lt;/b&gt;&lt;/font&gt;&lt;/div&gt;&lt;div style=&quot;font-size: 21px;&quot;&gt;&lt;font style=&quot;font-size: 21px;&quot;&gt;&lt;b&gt;string playerTwo = second contestant&#39;s name&lt;/b&gt;&lt;/font&gt;&lt;/div&gt;&lt;div style=&quot;font-size: 21px;&quot;&gt;&lt;font style=&quot;font-size: 21px;&quot;&gt;&lt;b&gt;string playerThree = third contestant&#39;s name&lt;/b&gt;&lt;/font&gt;&lt;/div&gt;&lt;div style=&quot;font-size: 21px;&quot;&gt;&lt;font style=&quot;font-size: 21px;&quot;&gt;&lt;b&gt;string question = data stored at columnNumber, rowNumber&lt;/b&gt;&lt;/font&gt;&lt;/div&gt;&lt;div style=&quot;font-size: 21px;&quot;&gt;&lt;font style=&quot;font-size: 21px;&quot;&gt;&lt;b&gt;string answer = player input for question&lt;/b&gt;&lt;/font&gt;&lt;/div&gt;&lt;div style=&quot;font-size: 21px;&quot;&gt;&lt;font style=&quot;font-size: 21px;&quot;&gt;&lt;b&gt;num doublePoints = 2 * rowNumber&lt;/b&gt;&lt;/font&gt;&lt;/div&gt;&lt;div style=&quot;font-size: 21px;&quot;&gt;&lt;font style=&quot;font-size: 21px;&quot;&gt;&lt;b&gt;num playerScore = current points held by player&lt;/b&gt;&lt;/font&gt;&lt;/div&gt;&lt;div style=&quot;font-size: 21px;&quot;&gt;&lt;font style=&quot;font-size: 21px;&quot;&gt;&lt;b&gt;num newScore = playerScore + rowNumber&lt;/b&gt;&lt;/font&gt;&lt;/div&gt;&lt;div style=&quot;font-size: 21px;&quot;&gt;&lt;font style=&quot;font-size: 21px;&quot;&gt;&lt;b&gt;string shouldRepeat = indicates if decision should be repeated&lt;/b&gt;&lt;/font&gt;&lt;/div&gt;&lt;div style=&quot;font-size: 21px;&quot;&gt;&lt;font style=&quot;font-size: 21px;&quot;&gt;&lt;b&gt;&lt;br&gt;&lt;/b&gt;&lt;/font&gt;&lt;/div&gt;&lt;div style=&quot;font-size: 21px;&quot;&gt;&lt;span style=&quot;&quot;&gt;&lt;br&gt;&lt;/span&gt;&lt;/div&gt;" style="rounded=0;whiteSpace=wrap;html=1;align=left;fillColor=#0050ef;fontColor=#ffffff;strokeColor=#001DBC;" vertex="1" parent="1">
          <mxGeometry x="-279.5" y="-907" width="639" height="366" as="geometry" />
        </mxCell>
        <mxCell id="0lG4HtCBKDrn22ON5Dr3-144" value="&lt;font style=&quot;font-size: 24px;&quot;&gt;stop&lt;/font&gt;" style="ellipse;whiteSpace=wrap;html=1;fillColor=#60a917;strokeColor=#2D7600;fontColor=#ffffff;" vertex="1" parent="1">
          <mxGeometry x="-35" y="1211" width="172" height="98" as="geometry" />
        </mxCell>
        <mxCell id="0lG4HtCBKDrn22ON5Dr3-147" value="" style="edgeStyle=orthogonalEdgeStyle;rounded=0;orthogonalLoop=1;jettySize=auto;html=1;" edge="1" parent="1" source="0lG4HtCBKDrn22ON5Dr3-146" target="0lG4HtCBKDrn22ON5Dr3-58">
          <mxGeometry relative="1" as="geometry" />
        </mxCell>
        <mxCell id="0lG4HtCBKDrn22ON5Dr3-146" value="" style="strokeWidth=2;html=1;shape=mxgraph.flowchart.annotation_2;align=left;labelPosition=right;pointerEvents=1;direction=north;" vertex="1" parent="1">
          <mxGeometry x="-252" y="203" width="584" height="50" as="geometry" />
        </mxCell>
        <mxCell id="0lG4HtCBKDrn22ON5Dr3-148" value="&lt;font style=&quot;font-size: 20px;&quot;&gt;Yes&lt;/font&gt;" style="text;html=1;align=center;verticalAlign=middle;resizable=0;points=[];autosize=1;strokeColor=none;fillColor=none;" vertex="1" parent="1">
          <mxGeometry x="393" y="746" width="51" height="36" as="geometry" />
        </mxCell>
        <mxCell id="0lG4HtCBKDrn22ON5Dr3-150" value="" style="shape=partialRectangle;whiteSpace=wrap;html=1;bottom=1;right=1;left=1;top=0;fillColor=none;routingCenterX=-0.5;" vertex="1" parent="1">
          <mxGeometry x="123" y="59" width="364" height="60" as="geometry" />
        </mxCell>
        <mxCell id="0lG4HtCBKDrn22ON5Dr3-151" value="" style="endArrow=classic;html=1;rounded=0;" edge="1" parent="1">
          <mxGeometry width="50" height="50" relative="1" as="geometry">
            <mxPoint x="332" y="119" as="sourcePoint" />
            <mxPoint x="332" y="224" as="targetPoint" />
          </mxGeometry>
        </mxCell>
      </root>
    </mxGraphModel>
  </diagram>
</mxfile>
